<?xml version="1.0" encoding="UTF-8" standalone="no"?><!-- Generator: Gravit.io --><svg xmlns="http://www.w3.org/2000/svg" xmlns:xlink="http://www.w3.org/1999/xlink" style="isolation:isolate" viewBox="0 0 65 56" width="65pt" height="56pt"><defs><clipPath id="_clipPath_CrP8eUyVHQeyBpjX9T4Zd6s1uCiRhxP4"><rect width="65" height="56"/></clipPath></defs><g clip-path="url(#_clipPath_CrP8eUyVHQeyBpjX9T4Zd6s1uCiRhxP4)"><clipPath id="_clipPath_tUteMJYtSTuunjzBUca9GNReVEb8YLEi"><rect x="0" y="0" width="65" height="56" transform="matrix(1,0,0,1,0,0)" fill="rgb(255,255,255)"/></clipPath><g clip-path="url(#_clipPath_tUteMJYtSTuunjzBUca9GNReVEb8YLEi)"><g><rect x="0" y="0" width="65" height="56" transform="matrix(1,0,0,1,0,0)" fill="rgb(255,255,255)"/><g><path d=" M 19 9 L 45.438 9 L 45.438 35.438 L 19 35.438 L 19 9 Z " fill="none"/><path d=" M 32.219 15.268 L 37.727 20.225 L 37.727 28.825 L 35.527 28.825 L 35.527 22.219 L 28.914 22.219 L 28.914 28.828 L 26.714 28.828 L 26.714 20.228 L 32.222 15.271 M 32.222 12.308 L 21.203 22.219 L 24.503 22.219 L 24.503 31.032 L 31.112 31.032 L 31.112 24.422 L 33.312 24.422 L 33.312 31.031 L 39.921 31.031 L 39.921 22.219 L 43.221 22.219 L 32.222 12.308 Z " fill="rgb(0,0,0)"/></g><path d=" M 24.626 39.18 L 24.626 47 L 23.589 47 L 23.589 43.385 L 19.647 43.385 L 19.647 47 L 18.616 47 L 18.616 39.18 L 19.647 39.18 L 19.647 42.542 L 23.589 42.542 L 23.589 39.18 L 24.626 39.18 L 24.626 39.18 Z  M 26.039 44.11 L 26.039 44.041 L 26.039 44.041 Q 26.039 43.187 26.374 42.504 L 26.374 42.504 L 26.374 42.504 Q 26.71 41.822 27.309 41.452 L 27.309 41.452 L 27.309 41.452 Q 27.908 41.081 28.676 41.081 L 28.676 41.081 L 28.676 41.081 Q 29.863 41.081 30.596 41.903 L 30.596 41.903 L 30.596 41.903 Q 31.329 42.725 31.329 44.089 L 31.329 44.089 L 31.329 44.159 L 31.329 44.159 Q 31.329 45.007 31.004 45.681 L 31.004 45.681 L 31.004 45.681 Q 30.679 46.355 30.075 46.731 L 30.075 46.731 L 30.075 46.731 Q 29.471 47.107 28.687 47.107 L 28.687 47.107 L 28.687 47.107 Q 27.505 47.107 26.772 46.286 L 26.772 46.286 L 26.772 46.286 Q 26.039 45.464 26.039 44.11 L 26.039 44.11 L 26.039 44.11 Z  M 27.038 44.159 L 27.038 44.159 L 27.038 44.159 Q 27.038 45.125 27.486 45.711 L 27.486 45.711 L 27.486 45.711 Q 27.935 46.296 28.687 46.296 L 28.687 46.296 L 28.687 46.296 Q 29.444 46.296 29.89 45.703 L 29.89 45.703 L 29.89 45.703 Q 30.335 45.109 30.335 44.041 L 30.335 44.041 L 30.335 44.041 Q 30.335 43.084 29.882 42.491 L 29.882 42.491 L 29.882 42.491 Q 29.428 41.897 28.676 41.897 L 28.676 41.897 L 28.676 41.897 Q 27.94 41.897 27.489 42.483 L 27.489 42.483 L 27.489 42.483 Q 27.038 43.068 27.038 44.159 Z  M 32.57 41.188 L 33.51 41.188 L 33.537 41.833 L 33.537 41.833 Q 34.176 41.081 35.261 41.081 L 35.261 41.081 L 35.261 41.081 Q 36.48 41.081 36.92 42.016 L 36.92 42.016 L 36.92 42.016 Q 37.21 41.597 37.675 41.339 L 37.675 41.339 L 37.675 41.339 Q 38.14 41.081 38.773 41.081 L 38.773 41.081 L 38.773 41.081 Q 40.686 41.081 40.718 43.106 L 40.718 43.106 L 40.718 47 L 39.724 47 L 39.724 43.165 L 39.724 43.165 Q 39.724 42.542 39.439 42.233 L 39.439 42.233 L 39.439 42.233 Q 39.155 41.924 38.483 41.924 L 38.483 41.924 L 38.483 41.924 Q 37.93 41.924 37.565 42.255 L 37.565 42.255 L 37.565 42.255 Q 37.2 42.585 37.141 43.144 L 37.141 43.144 L 37.141 47 L 36.142 47 L 36.142 43.192 L 36.142 43.192 Q 36.142 41.924 34.901 41.924 L 34.901 41.924 L 34.901 41.924 Q 33.923 41.924 33.563 42.757 L 33.563 42.757 L 33.563 47 L 32.57 47 L 32.57 41.188 L 32.57 41.188 Z  M 44.628 47.107 L 44.628 47.107 L 44.628 47.107 Q 43.446 47.107 42.705 46.331 L 42.705 46.331 L 42.705 46.331 Q 41.964 45.555 41.964 44.255 L 41.964 44.255 L 41.964 44.073 L 41.964 44.073 Q 41.964 43.208 42.294 42.529 L 42.294 42.529 L 42.294 42.529 Q 42.625 41.849 43.218 41.465 L 43.218 41.465 L 43.218 41.465 Q 43.812 41.081 44.504 41.081 L 44.504 41.081 L 44.504 41.081 Q 45.638 41.081 46.266 41.828 L 46.266 41.828 L 46.266 41.828 Q 46.895 42.574 46.895 43.965 L 46.895 43.965 L 46.895 44.379 L 42.958 44.379 L 42.958 44.379 Q 42.979 45.238 43.46 45.767 L 43.46 45.767 L 43.46 45.767 Q 43.94 46.296 44.682 46.296 L 44.682 46.296 L 44.682 46.296 Q 45.208 46.296 45.573 46.082 L 45.573 46.082 L 45.573 46.082 Q 45.938 45.867 46.212 45.512 L 46.212 45.512 L 46.819 45.985 L 46.819 45.985 Q 46.089 47.107 44.628 47.107 Z  M 44.504 41.897 L 44.504 41.897 L 44.504 41.897 Q 43.903 41.897 43.495 42.335 L 43.495 42.335 L 43.495 42.335 Q 43.086 42.773 42.99 43.563 L 42.99 43.563 L 45.901 43.563 L 45.901 43.487 L 45.901 43.487 Q 45.858 42.73 45.493 42.314 L 45.493 42.314 L 45.493 42.314 Q 45.127 41.897 44.504 41.897 Z " fill-rule="evenodd" fill="rgb(0,0,0)"/></g></g></g></svg>