<?xml version="1.0" encoding="UTF-8" standalone="no"?><!-- Generator: Gravit.io --><svg xmlns="http://www.w3.org/2000/svg" xmlns:xlink="http://www.w3.org/1999/xlink" style="isolation:isolate" viewBox="0 0 65 56" width="65pt" height="56pt"><defs><clipPath id="_clipPath_1l7m1bvReJJyowBlixSFCbQqkc46hBcx"><rect width="65" height="56"/></clipPath></defs><g clip-path="url(#_clipPath_1l7m1bvReJJyowBlixSFCbQqkc46hBcx)"><clipPath id="_clipPath_YGedgItIENHbBarLxHevSXK28txNcq1F"><rect x="0" y="0" width="65" height="56" transform="matrix(1,0,0,1,0,0)" fill="rgb(255,255,255)"/></clipPath><g clip-path="url(#_clipPath_YGedgItIENHbBarLxHevSXK28txNcq1F)"><g><rect x="0" y="0" width="65" height="56" transform="matrix(1,0,0,1,0,0)" fill="rgb(255,255,255)"/><path d=" M 14.721 42.938 L 12.879 42.938 L 12.879 46 L 11.848 46 L 11.848 38.18 L 14.732 38.18 L 14.732 38.18 Q 16.016 38.18 16.743 38.835 L 16.743 38.835 L 16.743 38.835 Q 17.471 39.49 17.471 40.57 L 17.471 40.57 L 17.471 40.57 Q 17.471 41.708 16.76 42.323 L 16.76 42.323 L 16.76 42.323 Q 16.048 42.938 14.721 42.938 L 14.721 42.938 L 14.721 42.938 Z  M 12.879 39.028 L 12.879 42.095 L 14.732 42.095 L 14.732 42.095 Q 15.559 42.095 16 41.706 L 16 41.706 L 16 41.706 Q 16.44 41.316 16.44 40.581 L 16.44 40.581 L 16.44 40.581 Q 16.44 39.882 16 39.463 L 16 39.463 L 16 39.463 Q 15.559 39.044 14.791 39.028 L 14.791 39.028 L 12.879 39.028 L 12.879 39.028 Z  M 23.202 46 L 22.16 46 L 22.16 46 Q 22.074 45.828 22.021 45.388 L 22.021 45.388 L 22.021 45.388 Q 21.328 46.107 20.366 46.107 L 20.366 46.107 L 20.366 46.107 Q 19.507 46.107 18.956 45.621 L 18.956 45.621 L 18.956 45.621 Q 18.406 45.135 18.406 44.389 L 18.406 44.389 L 18.406 44.389 Q 18.406 43.481 19.096 42.979 L 19.096 42.979 L 19.096 42.979 Q 19.786 42.477 21.038 42.477 L 21.038 42.477 L 22.004 42.477 L 22.004 42.02 L 22.004 42.02 Q 22.004 41.499 21.693 41.19 L 21.693 41.19 L 21.693 41.19 Q 21.381 40.881 20.774 40.881 L 20.774 40.881 L 20.774 40.881 Q 20.243 40.881 19.883 41.15 L 19.883 41.15 L 19.883 41.15 Q 19.523 41.418 19.523 41.8 L 19.523 41.8 L 18.524 41.8 L 18.524 41.8 Q 18.524 41.365 18.833 40.959 L 18.833 40.959 L 18.833 40.959 Q 19.142 40.554 19.671 40.317 L 19.671 40.317 L 19.671 40.317 Q 20.2 40.081 20.834 40.081 L 20.834 40.081 L 20.834 40.081 Q 21.838 40.081 22.407 40.583 L 22.407 40.583 L 22.407 40.583 Q 22.977 41.085 22.998 41.966 L 22.998 41.966 L 22.998 44.641 L 22.998 44.641 Q 22.998 45.441 23.202 45.914 L 23.202 45.914 L 23.202 46 L 23.202 46 Z  M 20.511 45.243 L 20.511 45.243 L 20.511 45.243 Q 20.979 45.243 21.398 45.001 L 21.398 45.001 L 21.398 45.001 Q 21.816 44.759 22.004 44.373 L 22.004 44.373 L 22.004 43.18 L 21.226 43.18 L 21.226 43.18 Q 19.399 43.18 19.399 44.249 L 19.399 44.249 L 19.399 44.249 Q 19.399 44.716 19.711 44.979 L 19.711 44.979 L 19.711 44.979 Q 20.023 45.243 20.511 45.243 Z  M 24.926 40.188 L 26.377 44.544 L 27.73 40.188 L 28.794 40.188 L 26.457 46.897 L 26.457 46.897 Q 25.915 48.347 24.733 48.347 L 24.733 48.347 L 24.545 48.331 L 24.174 48.261 L 24.174 47.456 L 24.443 47.477 L 24.443 47.477 Q 24.948 47.477 25.23 47.273 L 25.23 47.273 L 25.23 47.273 Q 25.512 47.069 25.694 46.526 L 25.694 46.526 L 25.915 45.936 L 23.841 40.188 L 24.926 40.188 L 24.926 40.188 Z  M 29.674 40.188 L 30.614 40.188 L 30.641 40.833 L 30.641 40.833 Q 31.28 40.081 32.365 40.081 L 32.365 40.081 L 32.365 40.081 Q 33.585 40.081 34.025 41.016 L 34.025 41.016 L 34.025 41.016 Q 34.315 40.597 34.78 40.339 L 34.78 40.339 L 34.78 40.339 Q 35.244 40.081 35.878 40.081 L 35.878 40.081 L 35.878 40.081 Q 37.79 40.081 37.822 42.106 L 37.822 42.106 L 37.822 46 L 36.829 46 L 36.829 42.165 L 36.829 42.165 Q 36.829 41.542 36.544 41.233 L 36.544 41.233 L 36.544 41.233 Q 36.259 40.924 35.588 40.924 L 35.588 40.924 L 35.588 40.924 Q 35.035 40.924 34.669 41.255 L 34.669 41.255 L 34.669 41.255 Q 34.304 41.585 34.245 42.144 L 34.245 42.144 L 34.245 46 L 33.246 46 L 33.246 42.192 L 33.246 42.192 Q 33.246 40.924 32.005 40.924 L 32.005 40.924 L 32.005 40.924 Q 31.028 40.924 30.668 41.757 L 30.668 41.757 L 30.668 46 L 29.674 46 L 29.674 40.188 L 29.674 40.188 Z  M 41.732 46.107 L 41.732 46.107 L 41.732 46.107 Q 40.551 46.107 39.81 45.331 L 39.81 45.331 L 39.81 45.331 Q 39.068 44.555 39.068 43.255 L 39.068 43.255 L 39.068 43.073 L 39.068 43.073 Q 39.068 42.208 39.399 41.529 L 39.399 41.529 L 39.399 41.529 Q 39.729 40.849 40.323 40.465 L 40.323 40.465 L 40.323 40.465 Q 40.916 40.081 41.609 40.081 L 41.609 40.081 L 41.609 40.081 Q 42.742 40.081 43.371 40.828 L 43.371 40.828 L 43.371 40.828 Q 43.999 41.574 43.999 42.965 L 43.999 42.965 L 43.999 43.379 L 40.062 43.379 L 40.062 43.379 Q 40.084 44.238 40.564 44.767 L 40.564 44.767 L 40.564 44.767 Q 41.045 45.296 41.786 45.296 L 41.786 45.296 L 41.786 45.296 Q 42.313 45.296 42.678 45.082 L 42.678 45.082 L 42.678 45.082 Q 43.043 44.867 43.317 44.512 L 43.317 44.512 L 43.924 44.985 L 43.924 44.985 Q 43.193 46.107 41.732 46.107 Z  M 41.609 40.897 L 41.609 40.897 L 41.609 40.897 Q 41.007 40.897 40.599 41.335 L 40.599 41.335 L 40.599 41.335 Q 40.191 41.773 40.094 42.563 L 40.094 42.563 L 43.005 42.563 L 43.005 42.487 L 43.005 42.487 Q 42.962 41.73 42.597 41.314 L 42.597 41.314 L 42.597 41.314 Q 42.232 40.897 41.609 40.897 Z  M 45.148 40.188 L 46.088 40.188 L 46.121 40.919 L 46.121 40.919 Q 46.787 40.081 47.861 40.081 L 47.861 40.081 L 47.861 40.081 Q 49.703 40.081 49.719 42.16 L 49.719 42.16 L 49.719 46 L 48.726 46 L 48.726 42.154 L 48.726 42.154 Q 48.72 41.526 48.438 41.225 L 48.438 41.225 L 48.438 41.225 Q 48.156 40.924 47.56 40.924 L 47.56 40.924 L 47.56 40.924 Q 47.077 40.924 46.711 41.182 L 46.711 41.182 L 46.711 41.182 Q 46.346 41.44 46.142 41.859 L 46.142 41.859 L 46.142 46 L 45.148 46 L 45.148 40.188 L 45.148 40.188 Z  M 51.572 38.781 L 52.566 38.781 L 52.566 40.188 L 53.651 40.188 L 53.651 40.957 L 52.566 40.957 L 52.566 44.561 L 52.566 44.561 Q 52.566 44.91 52.711 45.084 L 52.711 45.084 L 52.711 45.084 Q 52.856 45.259 53.205 45.259 L 53.205 45.259 L 53.205 45.259 Q 53.377 45.259 53.678 45.194 L 53.678 45.194 L 53.678 46 L 53.678 46 Q 53.286 46.107 52.915 46.107 L 52.915 46.107 L 52.915 46.107 Q 52.249 46.107 51.911 45.705 L 51.911 45.705 L 51.911 45.705 Q 51.572 45.302 51.572 44.561 L 51.572 44.561 L 51.572 40.957 L 50.514 40.957 L 50.514 40.188 L 51.572 40.188 L 51.572 38.781 L 51.572 38.781 Z " fill-rule="evenodd" fill="rgb(0,0,0)"/><g><path d=" M 21 10 L 45 10 L 45 34 L 21 34 L 21 10 Z " fill="none"/><path d=" M 41 14 L 25 14 C 24.47 13.999 23.962 14.209 23.588 14.585 C 23.214 14.961 23.006 15.47 23.01 16 L 23 28 C 22.998 28.531 23.208 29.041 23.584 29.416 C 23.959 29.792 24.469 30.002 25 30 L 41 30 C 41.531 30.002 42.041 29.792 42.416 29.416 C 42.792 29.041 43.002 28.531 43 28 L 43 16 C 43.002 15.469 42.792 14.959 42.416 14.584 C 42.041 14.208 41.531 13.998 41 14 L 41 14 Z  M 41 28 L 25 28 L 25 22 L 41 22 L 41 28 Z  M 41 18 L 25 18 L 25 16 L 41 16 L 41 18 Z " fill="rgb(0,0,0)"/></g></g></g></g></svg>