<?xml version="1.0" encoding="UTF-8" standalone="no"?><!-- Generator: Gravit.io --><svg xmlns="http://www.w3.org/2000/svg" xmlns:xlink="http://www.w3.org/1999/xlink" style="isolation:isolate" viewBox="0 0 65 56" width="65pt" height="56pt"><defs><clipPath id="_clipPath_6t6kY85EdRq3cHqpaAgC79jZ5j2k9jsu"><rect width="65" height="56"/></clipPath></defs><g clip-path="url(#_clipPath_6t6kY85EdRq3cHqpaAgC79jZ5j2k9jsu)"><clipPath id="_clipPath_Io70FsVtKQGDn6Byjup66sURZKhCcDXl"><rect x="0" y="0" width="65" height="56" transform="matrix(1,0,0,1,0,0)" fill="rgb(255,255,255)"/></clipPath><g clip-path="url(#_clipPath_Io70FsVtKQGDn6Byjup66sURZKhCcDXl)"><g><rect x="0" y="0" width="65" height="56" transform="matrix(1,0,0,1,0,0)" fill="rgb(255,255,255)"/><path d=" M 18.127 46 L 17.38 43.959 L 14.104 43.959 L 13.368 46 L 12.304 46 L 15.291 38.18 L 16.193 38.18 L 19.185 46 L 18.127 46 L 18.127 46 Z  M 15.742 39.453 L 14.415 43.11 L 17.074 43.11 L 15.742 39.453 L 15.742 39.453 Z  M 22.413 45.296 L 22.413 45.296 L 22.413 45.296 Q 22.945 45.296 23.342 44.974 L 23.342 44.974 L 23.342 44.974 Q 23.739 44.652 23.782 44.168 L 23.782 44.168 L 24.722 44.168 L 24.722 44.168 Q 24.696 44.668 24.379 45.119 L 24.379 45.119 L 24.379 45.119 Q 24.062 45.57 23.533 45.839 L 23.533 45.839 L 23.533 45.839 Q 23.004 46.107 22.413 46.107 L 22.413 46.107 L 22.413 46.107 Q 21.226 46.107 20.525 45.315 L 20.525 45.315 L 20.525 45.315 Q 19.824 44.523 19.824 43.148 L 19.824 43.148 L 19.824 42.981 L 19.824 42.981 Q 19.824 42.133 20.135 41.472 L 20.135 41.472 L 20.135 41.472 Q 20.447 40.812 21.03 40.446 L 21.03 40.446 L 21.03 40.446 Q 21.612 40.081 22.407 40.081 L 22.407 40.081 L 22.407 40.081 Q 23.385 40.081 24.032 40.667 L 24.032 40.667 L 24.032 40.667 Q 24.679 41.252 24.722 42.187 L 24.722 42.187 L 23.782 42.187 L 23.782 42.187 Q 23.739 41.623 23.355 41.26 L 23.355 41.26 L 23.355 41.26 Q 22.971 40.897 22.407 40.897 L 22.407 40.897 L 22.407 40.897 Q 21.65 40.897 21.234 41.443 L 21.234 41.443 L 21.234 41.443 Q 20.818 41.988 20.818 43.019 L 20.818 43.019 L 20.818 43.207 L 20.818 43.207 Q 20.818 44.211 21.231 44.754 L 21.231 44.754 L 21.231 44.754 Q 21.645 45.296 22.413 45.296 Z  M 28.171 45.296 L 28.171 45.296 L 28.171 45.296 Q 28.702 45.296 29.1 44.974 L 29.1 44.974 L 29.1 44.974 Q 29.497 44.652 29.54 44.168 L 29.54 44.168 L 30.48 44.168 L 30.48 44.168 Q 30.453 44.668 30.136 45.119 L 30.136 45.119 L 30.136 45.119 Q 29.82 45.57 29.29 45.839 L 29.29 45.839 L 29.29 45.839 Q 28.761 46.107 28.171 46.107 L 28.171 46.107 L 28.171 46.107 Q 26.984 46.107 26.283 45.315 L 26.283 45.315 L 26.283 45.315 Q 25.582 44.523 25.582 43.148 L 25.582 43.148 L 25.582 42.981 L 25.582 42.981 Q 25.582 42.133 25.893 41.472 L 25.893 41.472 L 25.893 41.472 Q 26.205 40.812 26.788 40.446 L 26.788 40.446 L 26.788 40.446 Q 27.37 40.081 28.165 40.081 L 28.165 40.081 L 28.165 40.081 Q 29.143 40.081 29.79 40.667 L 29.79 40.667 L 29.79 40.667 Q 30.437 41.252 30.48 42.187 L 30.48 42.187 L 29.54 42.187 L 29.54 42.187 Q 29.497 41.623 29.113 41.26 L 29.113 41.26 L 29.113 41.26 Q 28.729 40.897 28.165 40.897 L 28.165 40.897 L 28.165 40.897 Q 27.408 40.897 26.992 41.443 L 26.992 41.443 L 26.992 41.443 Q 26.575 41.988 26.575 43.019 L 26.575 43.019 L 26.575 43.207 L 26.575 43.207 Q 26.575 44.211 26.989 44.754 L 26.989 44.754 L 26.989 44.754 Q 27.403 45.296 28.171 45.296 Z  M 31.334 43.11 L 31.334 43.041 L 31.334 43.041 Q 31.334 42.187 31.67 41.504 L 31.67 41.504 L 31.67 41.504 Q 32.006 40.822 32.604 40.452 L 32.604 40.452 L 32.604 40.452 Q 33.203 40.081 33.971 40.081 L 33.971 40.081 L 33.971 40.081 Q 35.158 40.081 35.892 40.903 L 35.892 40.903 L 35.892 40.903 Q 36.625 41.725 36.625 43.089 L 36.625 43.089 L 36.625 43.159 L 36.625 43.159 Q 36.625 44.007 36.3 44.681 L 36.3 44.681 L 36.3 44.681 Q 35.975 45.355 35.371 45.731 L 35.371 45.731 L 35.371 45.731 Q 34.766 46.107 33.982 46.107 L 33.982 46.107 L 33.982 46.107 Q 32.8 46.107 32.067 45.286 L 32.067 45.286 L 32.067 45.286 Q 31.334 44.464 31.334 43.11 L 31.334 43.11 L 31.334 43.11 Z  M 32.333 43.159 L 32.333 43.159 L 32.333 43.159 Q 32.333 44.125 32.782 44.711 L 32.782 44.711 L 32.782 44.711 Q 33.23 45.296 33.982 45.296 L 33.982 45.296 L 33.982 45.296 Q 34.739 45.296 35.185 44.703 L 35.185 44.703 L 35.185 44.703 Q 35.631 44.109 35.631 43.041 L 35.631 43.041 L 35.631 43.041 Q 35.631 42.084 35.177 41.491 L 35.177 41.491 L 35.177 41.491 Q 34.723 40.897 33.971 40.897 L 33.971 40.897 L 33.971 40.897 Q 33.236 40.897 32.784 41.483 L 32.784 41.483 L 32.784 41.483 Q 32.333 42.068 32.333 43.159 Z  M 41.48 46 L 41.459 45.425 L 41.459 45.425 Q 40.879 46.107 39.756 46.107 L 39.756 46.107 L 39.756 46.107 Q 38.827 46.107 38.341 45.568 L 38.341 45.568 L 38.341 45.568 Q 37.855 45.028 37.849 43.97 L 37.849 43.97 L 37.849 40.188 L 38.843 40.188 L 38.843 43.943 L 38.843 43.943 Q 38.843 45.264 39.917 45.264 L 39.917 45.264 L 39.917 45.264 Q 41.056 45.264 41.432 44.416 L 41.432 44.416 L 41.432 40.188 L 42.425 40.188 L 42.425 46 L 41.48 46 L 41.48 46 Z  M 43.935 40.188 L 44.875 40.188 L 44.907 40.919 L 44.907 40.919 Q 45.573 40.081 46.647 40.081 L 46.647 40.081 L 46.647 40.081 Q 48.489 40.081 48.506 42.16 L 48.506 42.16 L 48.506 46 L 47.512 46 L 47.512 42.154 L 47.512 42.154 Q 47.507 41.526 47.225 41.225 L 47.225 41.225 L 47.225 41.225 Q 46.943 40.924 46.346 40.924 L 46.346 40.924 L 46.346 40.924 Q 45.863 40.924 45.498 41.182 L 45.498 41.182 L 45.498 41.182 Q 45.133 41.44 44.928 41.859 L 44.928 41.859 L 44.928 46 L 43.935 46 L 43.935 40.188 L 43.935 40.188 Z  M 50.359 38.781 L 51.352 38.781 L 51.352 40.188 L 52.437 40.188 L 52.437 40.957 L 51.352 40.957 L 51.352 44.561 L 51.352 44.561 Q 51.352 44.91 51.497 45.084 L 51.497 45.084 L 51.497 45.084 Q 51.642 45.259 51.991 45.259 L 51.991 45.259 L 51.991 45.259 Q 52.163 45.259 52.464 45.194 L 52.464 45.194 L 52.464 46 L 52.464 46 Q 52.072 46.107 51.701 46.107 L 51.701 46.107 L 51.701 46.107 Q 51.035 46.107 50.697 45.705 L 50.697 45.705 L 50.697 45.705 Q 50.359 45.302 50.359 44.561 L 50.359 44.561 L 50.359 40.957 L 49.3 40.957 L 49.3 40.188 L 50.359 40.188 L 50.359 38.781 L 50.359 38.781 Z " fill-rule="evenodd" fill="rgb(0,0,0)"/><g><path d=" M 21 10 L 45 10 L 45 34 L 21 34 L 21 10 Z " fill="none"/><path d=" M 33 15.9 C 34.16 15.9 35.1 16.84 35.1 18 C 35.1 19.16 34.16 20.1 33 20.1 C 31.84 20.1 30.9 19.16 30.9 18 C 30.9 16.84 31.84 15.9 33 15.9 M 33 24.9 C 35.97 24.9 39.1 26.36 39.1 27 L 39.1 28.1 L 26.9 28.1 L 26.9 27 C 26.9 26.36 30.03 24.9 33 24.9 Z  M 33 14 C 30.791 14 29 15.791 29 18 C 29 20.209 30.791 22 33 22 C 35.209 22 37 20.209 37 18 C 37 15.791 35.209 14 33 14 Z  M 33 23 C 30.33 23 25 24.34 25 27 L 25 30 L 41 30 L 41 27 C 41 24.34 35.67 23 33 23 Z " fill="rgb(0,0,0)"/></g></g></g></g></svg>