<svg xmlns="http://www.w3.org/2000/svg" xmlns:xlink="http://www.w3.org/1999/xlink" width="80" height="44" viewBox="0 0 80 44">
  <defs>
    <clipPath id="clip-Account">
      <rect width="80" height="44"/>
    </clipPath>
  </defs>
  <g id="Account" clip-path="url(#clip-Account)">
    <rect width="80" height="44" fill="#fff"/>
    <text id="Account-2" data-name="Account" transform="translate(40 38)" fill="rgba(0,0,0,0.54)" font-size="12" font-family="Helvetica"><tspan x="-21.68" y="0">Account</tspan></text>
    <g id="outline-person_outline-24px" transform="translate(28 4)">
      <path id="Path_443" data-name="Path 443" d="M0,0H24V24H0Z" fill="none"/>
      <path id="Path_444" data-name="Path 444" d="M12,5.9A2.1,2.1,0,1,1,9.9,8,2.1,2.1,0,0,1,12,5.9m0,9c2.97,0,6.1,1.46,6.1,2.1v1.1H5.9V17c0-.64,3.13-2.1,6.1-2.1M12,4a4,4,0,1,0,4,4A4,4,0,0,0,12,4Zm0,9c-2.67,0-8,1.34-8,4v3H20V17C20,14.34,14.67,13,12,13Z"/>
    </g>
  </g>
</svg>
