<svg xmlns="http://www.w3.org/2000/svg" xmlns:xlink="http://www.w3.org/1999/xlink" width="65" height="56" viewBox="0 0 65 56">
  <defs>
    <clipPath id="clip-Account">
      <rect width="65" height="56"/>
    </clipPath>
  </defs>
  <g id="Account" clip-path="url(#clip-Account)">
    <rect width="65" height="56" fill="#fff"/>
    <text id="Account-2" data-name="Account" transform="translate(4 36)" font-size="11" font-family="Roboto-Regular, Roboto"><tspan x="8.154" y="10">Account</tspan></text>
    <g id="outline-person_outline-24px" transform="translate(21 10)">
      <path id="Path_445" data-name="Path 445" d="M0,0H24V24H0Z" fill="none"/>
      <path id="Path_446" data-name="Path 446" d="M12,5.9A2.1,2.1,0,1,1,9.9,8,2.1,2.1,0,0,1,12,5.9m0,9c2.97,0,6.1,1.46,6.1,2.1v1.1H5.9V17c0-.64,3.13-2.1,6.1-2.1M12,4a4,4,0,1,0,4,4A4,4,0,0,0,12,4Zm0,9c-2.67,0-8,1.34-8,4v3H20V17C20,14.34,14.67,13,12,13Z"/>
    </g>
  </g>
</svg>
