<svg xmlns="http://www.w3.org/2000/svg" xmlns:xlink="http://www.w3.org/1999/xlink" width="80" height="44" viewBox="0 0 80 44">
  <defs>
    <clipPath id="clip-Events">
      <rect width="80" height="44"/>
    </clipPath>
  </defs>
  <g id="Events" clip-path="url(#clip-Events)">
    <rect width="80" height="44" fill="#fff"/>
    <text id="Events-2" data-name="Events" transform="translate(40 39)" fill="rgba(0,0,0,0.54)" font-size="12" font-family="Helvetica"><tspan x="-18.343" y="0">Events</tspan></text>
    <g id="outline-event-24px" transform="translate(28 3)">
      <path id="Path_441" data-name="Path 441" d="M0,0H24V24H0Z" fill="none"/>
      <path id="Path_442" data-name="Path 442" d="M19,4H18V2H16V4H8V2H6V4H5A1.991,1.991,0,0,0,3.01,6L3,20a2,2,0,0,0,2,2H19a2.006,2.006,0,0,0,2-2V6A2.006,2.006,0,0,0,19,4Zm0,16H5V10H19ZM19,8H5V6H19Zm-7,5h5v5H12Z"/>
    </g>
  </g>
</svg>
