<?xml version="1.0" standalone="no"?><!-- Generator: Gravit.io --><svg xmlns="http://www.w3.org/2000/svg" xmlns:xlink="http://www.w3.org/1999/xlink" style="isolation:isolate" viewBox="0 0 86.667 74.667" width="86.667" height="74.667"><defs><clipPath id="_clipPath_VYugmqrUboFk4mh1ebZ8cuvknYpNRXML"><rect width="86.667" height="74.667"/></clipPath></defs><g clip-path="url(#_clipPath_VYugmqrUboFk4mh1ebZ8cuvknYpNRXML)"><clipPath id="_clipPath_MPTt6GXMmAcHbI3lKO6MEV1F939OZwJ2"><rect x="0" y="0" width="86.667" height="74.667" transform="matrix(1,0,0,1,0,0)" fill="rgb(255,255,255)"/></clipPath><g clip-path="url(#_clipPath_MPTt6GXMmAcHbI3lKO6MEV1F939OZwJ2)"><g id="Group"><clipPath id="_clipPath_MDRUz4ZRzOUELA0vjTeyAy3Ll0ucln9t"><rect x="0" y="0" width="86.667" height="74.667" transform="matrix(1,0,0,1,0,0)" fill="rgb(255,255,255)"/></clipPath><g clip-path="url(#_clipPath_MDRUz4ZRzOUELA0vjTeyAy3Ll0ucln9t)"><g id="Group"><g id="Group"><rect x="0" y="0" width="86.667" height="74.667" transform="matrix(1,0,0,1,0,0)" fill="rgb(255,255,255)"/><g id="Group"><path d=" M 28 13.333 L 60 13.333 L 60 45.333 L 28 45.333 L 28 13.333 Z " fill="none"/><path d=" M 54.667 18.667 L 33.333 18.667 C 32.627 18.665 31.949 18.945 31.451 19.447 C 30.952 19.948 30.675 20.627 30.68 21.333 L 30.667 37.333 C 30.664 38.041 30.944 38.721 31.445 39.221 C 31.945 39.723 32.625 40.003 33.333 40 L 54.667 40 C 55.375 40.003 56.055 39.723 56.555 39.221 C 57.056 38.721 57.336 38.041 57.333 37.333 L 57.333 21.333 C 57.336 20.625 57.056 19.945 56.555 19.445 C 56.055 18.944 55.375 18.664 54.667 18.667 L 54.667 18.667 Z  M 54.667 37.333 L 33.333 37.333 L 33.333 29.333 L 54.667 29.333 L 54.667 37.333 Z  M 54.667 24 L 33.333 24 L 33.333 21.333 L 54.667 21.333 L 54.667 24 Z " fill="rgb(0,0,0)"/></g></g></g></g></g></g><path d=" M 55.442 58.092 L 53.098 58.092 L 53.098 61.988 L 51.785 61.988 L 51.785 52.035 L 55.456 52.035 L 55.456 52.035 Q 57.09 52.035 58.016 52.869 L 58.016 52.869 L 58.016 52.869 Q 58.942 53.703 58.942 55.077 L 58.942 55.077 L 58.942 55.077 Q 58.942 56.526 58.037 57.309 L 58.037 57.309 L 58.037 57.309 Q 57.131 58.092 55.442 58.092 L 55.442 58.092 Z  M 53.098 53.115 L 53.098 57.019 L 55.456 57.019 L 55.456 57.019 Q 56.509 57.019 57.069 56.523 L 57.069 56.523 L 57.069 56.523 Q 57.63 56.027 57.63 55.091 L 57.63 55.091 L 57.63 55.091 Q 57.63 54.202 57.069 53.669 L 57.069 53.669 L 57.069 53.669 Q 56.509 53.136 55.531 53.115 L 55.531 53.115 L 53.098 53.115 Z  M 66.312 61.988 L 64.985 61.988 L 64.985 61.988 Q 64.876 61.77 64.808 61.209 L 64.808 61.209 L 64.808 61.209 Q 63.926 62.125 62.702 62.125 L 62.702 62.125 L 62.702 62.125 Q 61.608 62.125 60.908 61.506 L 60.908 61.506 L 60.908 61.506 Q 60.207 60.888 60.207 59.938 L 60.207 59.938 L 60.207 59.938 Q 60.207 58.782 61.085 58.143 L 61.085 58.143 L 61.085 58.143 Q 61.964 57.504 63.557 57.504 L 63.557 57.504 L 64.787 57.504 L 64.787 56.923 L 64.787 56.923 Q 64.787 56.26 64.391 55.867 L 64.391 55.867 L 64.391 55.867 Q 63.994 55.474 63.222 55.474 L 63.222 55.474 L 63.222 55.474 Q 62.545 55.474 62.087 55.815 L 62.087 55.815 L 62.087 55.815 Q 61.629 56.157 61.629 56.643 L 61.629 56.643 L 60.357 56.643 L 60.357 56.643 Q 60.357 56.089 60.75 55.573 L 60.75 55.573 L 60.75 55.573 Q 61.144 55.057 61.817 54.756 L 61.817 54.756 L 61.817 54.756 Q 62.49 54.455 63.297 54.455 L 63.297 54.455 L 63.297 54.455 Q 64.575 54.455 65.3 55.094 L 65.3 55.094 L 65.3 55.094 Q 66.024 55.733 66.052 56.854 L 66.052 56.854 L 66.052 60.259 L 66.052 60.259 Q 66.052 61.277 66.312 61.879 L 66.312 61.879 L 66.312 61.988 Z  M 62.887 61.024 L 62.887 61.024 L 62.887 61.024 Q 63.481 61.024 64.015 60.717 L 64.015 60.717 L 64.015 60.717 Q 64.548 60.409 64.787 59.917 L 64.787 59.917 L 64.787 58.399 L 63.796 58.399 L 63.796 58.399 Q 61.472 58.399 61.472 59.76 L 61.472 59.76 L 61.472 59.76 Q 61.472 60.354 61.868 60.689 L 61.868 60.689 L 61.868 60.689 Q 62.265 61.024 62.887 61.024 Z  M 68.608 54.592 L 70.454 60.136 L 72.177 54.592 L 73.53 54.592 L 70.557 63.13 L 70.557 63.13 Q 69.866 64.976 68.362 64.976 L 68.362 64.976 L 68.123 64.955 L 67.651 64.866 L 67.651 63.841 L 67.993 63.868 L 67.993 63.868 Q 68.636 63.868 68.995 63.608 L 68.995 63.608 L 68.995 63.608 Q 69.354 63.349 69.586 62.658 L 69.586 62.658 L 69.866 61.906 L 67.228 54.592 L 68.608 54.592 Z  M 20.757 56.697 L 20.757 57.333 L 20.757 57.333 Q 20.757 58.775 20.299 59.818 L 20.299 59.818 L 20.299 59.818 Q 19.841 60.86 19.014 61.448 L 19.014 61.448 L 20.791 62.843 L 19.896 63.67 L 17.797 62.002 L 17.797 62.002 Q 17.305 62.125 16.758 62.125 L 16.758 62.125 L 16.758 62.125 Q 15.582 62.125 14.673 61.547 L 14.673 61.547 L 14.673 61.547 Q 13.764 60.97 13.261 59.9 L 13.261 59.9 L 13.261 59.9 Q 12.759 58.83 12.745 57.422 L 12.745 57.422 L 12.745 56.704 L 12.745 56.704 Q 12.745 55.269 13.244 54.168 L 13.244 54.168 L 13.244 54.168 Q 13.743 53.067 14.656 52.483 L 14.656 52.483 L 14.656 52.483 Q 15.568 51.898 16.744 51.898 L 16.744 51.898 L 16.744 51.898 Q 17.947 51.898 18.86 52.479 L 18.86 52.479 L 18.86 52.479 Q 19.772 53.061 20.265 54.151 L 20.265 54.151 L 20.265 54.151 Q 20.757 55.241 20.757 56.697 L 20.757 56.697 Z  M 19.444 57.429 L 19.444 56.69 L 19.444 56.69 Q 19.444 54.934 18.744 53.98 L 18.744 53.98 L 18.744 53.98 Q 18.043 53.026 16.744 53.026 L 16.744 53.026 L 16.744 53.026 Q 15.507 53.026 14.792 53.973 L 14.792 53.973 L 14.792 53.973 Q 14.078 54.92 14.058 56.602 L 14.058 56.602 L 14.058 57.333 L 14.058 57.333 Q 14.058 59.042 14.772 60.026 L 14.772 60.026 L 14.772 60.026 Q 15.486 61.011 16.758 61.011 L 16.758 61.011 L 16.758 61.011 Q 18.029 61.011 18.727 60.084 L 18.727 60.084 L 18.727 60.084 Q 19.424 59.158 19.444 57.429 L 19.444 57.429 Z  M 27.176 61.988 L 27.148 61.257 L 27.148 61.257 Q 26.41 62.125 24.981 62.125 L 24.981 62.125 L 24.981 62.125 Q 23.799 62.125 23.18 61.438 L 23.18 61.438 L 23.18 61.438 Q 22.562 60.751 22.555 59.404 L 22.555 59.404 L 22.555 54.592 L 23.819 54.592 L 23.819 59.37 L 23.819 59.37 Q 23.819 61.052 25.187 61.052 L 25.187 61.052 L 25.187 61.052 Q 26.636 61.052 27.114 59.972 L 27.114 59.972 L 27.114 54.592 L 28.379 54.592 L 28.379 61.988 L 27.176 61.988 Z  M 31.674 54.592 L 31.674 61.988 L 30.409 61.988 L 30.409 54.592 L 31.674 54.592 Z  M 30.307 52.63 L 30.307 52.63 L 30.307 52.63 Q 30.307 52.322 30.495 52.11 L 30.495 52.11 L 30.495 52.11 Q 30.683 51.898 31.052 51.898 L 31.052 51.898 L 31.052 51.898 Q 31.421 51.898 31.612 52.11 L 31.612 52.11 L 31.612 52.11 Q 31.804 52.322 31.804 52.63 L 31.804 52.63 L 31.804 52.63 Q 31.804 52.938 31.612 53.143 L 31.612 53.143 L 31.612 53.143 Q 31.421 53.348 31.052 53.348 L 31.052 53.348 L 31.052 53.348 Q 30.683 53.348 30.495 53.143 L 30.495 53.143 L 30.495 53.143 Q 30.307 52.938 30.307 52.63 Z  M 36.664 61.093 L 36.664 61.093 L 36.664 61.093 Q 37.341 61.093 37.847 60.683 L 37.847 60.683 L 37.847 60.683 Q 38.353 60.272 38.407 59.657 L 38.407 59.657 L 39.604 59.657 L 39.604 59.657 Q 39.569 60.293 39.166 60.867 L 39.166 60.867 L 39.166 60.867 Q 38.763 61.441 38.089 61.783 L 38.089 61.783 L 38.089 61.783 Q 37.416 62.125 36.664 62.125 L 36.664 62.125 L 36.664 62.125 Q 35.153 62.125 34.261 61.117 L 34.261 61.117 L 34.261 61.117 Q 33.369 60.108 33.369 58.358 L 33.369 58.358 L 33.369 58.146 L 33.369 58.146 Q 33.369 57.066 33.766 56.226 L 33.766 56.226 L 33.766 56.226 Q 34.162 55.385 34.904 54.92 L 34.904 54.92 L 34.904 54.92 Q 35.646 54.455 36.657 54.455 L 36.657 54.455 L 36.657 54.455 Q 37.901 54.455 38.725 55.2 L 38.725 55.2 L 38.725 55.2 Q 39.549 55.945 39.604 57.135 L 39.604 57.135 L 38.407 57.135 L 38.407 57.135 Q 38.353 56.417 37.864 55.956 L 37.864 55.956 L 37.864 55.956 Q 37.375 55.494 36.657 55.494 L 36.657 55.494 L 36.657 55.494 Q 35.693 55.494 35.164 56.188 L 35.164 56.188 L 35.164 56.188 Q 34.634 56.882 34.634 58.194 L 34.634 58.194 L 34.634 58.434 L 34.634 58.434 Q 34.634 59.712 35.16 60.402 L 35.16 60.402 L 35.16 60.402 Q 35.687 61.093 36.664 61.093 Z  M 45.667 61.988 L 43.09 58.563 L 42.297 59.391 L 42.297 61.988 L 41.032 61.988 L 41.032 51.488 L 42.297 51.488 L 42.297 57.839 L 42.974 57.025 L 45.277 54.592 L 46.815 54.592 L 43.938 57.682 L 47.15 61.988 L 45.667 61.988 Z " fill-rule="evenodd" fill="rgb(0,0,0)"/></g></svg>