<?xml version="1.0" standalone="no"?><!-- Generator: Gravit.io --><svg xmlns="http://www.w3.org/2000/svg" xmlns:xlink="http://www.w3.org/1999/xlink" style="isolation:isolate" viewBox="0 0 65 56" width="65" height="56"><defs><clipPath id="_clipPath_3B89fTVilxyhmr8oC4NBjvk9MlGk6Dga"><rect width="65" height="56"/></clipPath></defs><g clip-path="url(#_clipPath_3B89fTVilxyhmr8oC4NBjvk9MlGk6Dga)"><clipPath id="_clipPath_gcNc0Ok6JtvFwewqFItJihVxIZIpeE4g"><rect x="0" y="0" width="65" height="56" transform="matrix(1,0,0,1,0,0)" fill="rgb(255,255,255)"/></clipPath><g clip-path="url(#_clipPath_gcNc0Ok6JtvFwewqFItJihVxIZIpeE4g)"><g id="Search"><rect x="0" y="0" width="65" height="56" transform="matrix(1,0,0,1,0,0)" fill="rgb(255,255,255)"/><path d=" M 20.689 44.023 L 20.689 44.023 L 20.689 44.023 Q 20.689 43.75 20.605 43.54 L 20.605 43.54 L 20.605 43.54 Q 20.522 43.331 20.31 43.156 L 20.31 43.156 L 20.31 43.156 Q 20.098 42.981 19.738 42.828 L 19.738 42.828 L 19.738 42.828 Q 19.378 42.675 18.825 42.514 L 18.825 42.514 L 18.825 42.514 Q 18.245 42.348 17.775 42.135 L 17.775 42.135 L 17.775 42.135 Q 17.305 41.923 16.975 41.647 L 16.975 41.647 L 16.975 41.647 Q 16.644 41.37 16.467 41.016 L 16.467 41.016 L 16.467 41.016 Q 16.29 40.661 16.29 40.205 L 16.29 40.205 L 16.29 40.205 Q 16.29 39.748 16.48 39.359 L 16.48 39.359 L 16.48 39.359 Q 16.671 38.969 17.02 38.682 L 17.02 38.682 L 17.02 38.682 Q 17.369 38.395 17.858 38.233 L 17.858 38.233 L 17.858 38.233 Q 18.347 38.072 18.948 38.072 L 18.948 38.072 L 18.948 38.072 Q 19.609 38.072 20.125 38.271 L 20.125 38.271 L 20.125 38.271 Q 20.64 38.47 20.992 38.797 L 20.992 38.797 L 20.992 38.797 Q 21.344 39.125 21.527 39.555 L 21.527 39.555 L 21.527 39.555 Q 21.709 39.984 21.709 40.441 L 21.709 40.441 L 20.673 40.441 L 20.673 40.441 Q 20.673 40.113 20.568 39.834 L 20.568 39.834 L 20.568 39.834 Q 20.463 39.555 20.248 39.351 L 20.248 39.351 L 20.248 39.351 Q 20.033 39.146 19.711 39.034 L 19.711 39.034 L 19.711 39.034 Q 19.389 38.921 18.948 38.921 L 18.948 38.921 L 18.948 38.921 Q 18.535 38.921 18.229 39.018 L 18.229 39.018 L 18.229 39.018 Q 17.923 39.114 17.724 39.283 L 17.724 39.283 L 17.724 39.283 Q 17.525 39.453 17.428 39.684 L 17.428 39.684 L 17.428 39.684 Q 17.332 39.915 17.332 40.188 L 17.332 40.188 L 17.332 40.188 Q 17.332 40.436 17.436 40.64 L 17.436 40.64 L 17.436 40.64 Q 17.541 40.844 17.761 41.016 L 17.761 41.016 L 17.761 41.016 Q 17.982 41.188 18.328 41.333 L 18.328 41.333 L 18.328 41.333 Q 18.675 41.478 19.158 41.612 L 19.158 41.612 L 19.158 41.612 Q 19.824 41.8 20.307 42.028 L 20.307 42.028 L 20.307 42.028 Q 20.791 42.256 21.105 42.546 L 21.105 42.546 L 21.105 42.546 Q 21.419 42.836 21.572 43.196 L 21.572 43.196 L 21.572 43.196 Q 21.725 43.556 21.725 44.013 L 21.725 44.013 L 21.725 44.013 Q 21.725 44.491 21.532 44.877 L 21.532 44.877 L 21.532 44.877 Q 21.339 45.264 20.981 45.538 L 20.981 45.538 L 20.981 45.538 Q 20.624 45.812 20.122 45.96 L 20.122 45.96 L 20.122 45.96 Q 19.62 46.107 19.002 46.107 L 19.002 46.107 L 19.002 46.107 Q 18.642 46.107 18.282 46.04 L 18.282 46.04 L 18.282 46.04 Q 17.923 45.973 17.592 45.839 L 17.592 45.839 L 17.592 45.839 Q 17.262 45.705 16.98 45.506 L 16.98 45.506 L 16.98 45.506 Q 16.698 45.307 16.488 45.044 L 16.488 45.044 L 16.488 45.044 Q 16.279 44.781 16.161 44.453 L 16.161 44.453 L 16.161 44.453 Q 16.043 44.125 16.043 43.733 L 16.043 43.733 L 17.079 43.733 L 17.079 43.733 Q 17.079 44.136 17.238 44.424 L 17.238 44.424 L 17.238 44.424 Q 17.396 44.711 17.662 44.899 L 17.662 44.899 L 17.662 44.899 Q 17.928 45.087 18.274 45.176 L 18.274 45.176 L 18.274 45.176 Q 18.621 45.264 19.002 45.264 L 19.002 45.264 L 19.002 45.264 Q 19.819 45.264 20.254 44.931 L 20.254 44.931 L 20.254 44.931 Q 20.689 44.598 20.689 44.023 Z  M 25.302 46.107 L 25.302 46.107 L 25.302 46.107 Q 24.696 46.107 24.204 45.898 L 24.204 45.898 L 24.204 45.898 Q 23.713 45.688 23.363 45.315 L 23.363 45.315 L 23.363 45.315 Q 23.014 44.942 22.826 44.426 L 22.826 44.426 L 22.826 44.426 Q 22.638 43.911 22.638 43.298 L 22.638 43.298 L 22.638 43.073 L 22.638 43.073 Q 22.638 42.364 22.851 41.805 L 22.851 41.805 L 22.851 41.805 Q 23.063 41.247 23.417 40.865 L 23.417 40.865 L 23.417 40.865 Q 23.772 40.484 24.228 40.282 L 24.228 40.282 L 24.228 40.282 Q 24.685 40.081 25.179 40.081 L 25.179 40.081 L 25.179 40.081 Q 25.802 40.081 26.253 40.299 L 26.253 40.299 L 26.253 40.299 Q 26.704 40.516 26.997 40.897 L 26.997 40.897 L 26.997 40.897 Q 27.29 41.279 27.429 41.8 L 27.429 41.8 L 27.429 41.8 Q 27.569 42.321 27.569 42.933 L 27.569 42.933 L 27.569 43.379 L 23.632 43.379 L 23.632 43.379 Q 23.643 43.782 23.764 44.131 L 23.764 44.131 L 23.764 44.131 Q 23.884 44.48 24.107 44.738 L 24.107 44.738 L 24.107 44.738 Q 24.33 44.996 24.644 45.146 L 24.644 45.146 L 24.644 45.146 Q 24.959 45.296 25.356 45.296 L 25.356 45.296 L 25.356 45.296 Q 25.883 45.296 26.248 45.082 L 26.248 45.082 L 26.248 45.082 Q 26.613 44.867 26.887 44.512 L 26.887 44.512 L 27.494 44.985 L 27.494 44.985 Q 27.354 45.2 27.155 45.401 L 27.155 45.401 L 27.155 45.401 Q 26.957 45.603 26.691 45.761 L 26.691 45.761 L 26.691 45.761 Q 26.425 45.919 26.081 46.013 L 26.081 46.013 L 26.081 46.013 Q 25.738 46.107 25.302 46.107 Z  M 25.179 40.897 L 25.179 40.897 L 25.179 40.897 Q 24.878 40.897 24.626 41.008 L 24.626 41.008 L 24.626 41.008 Q 24.373 41.118 24.175 41.327 L 24.175 41.327 L 24.175 41.327 Q 23.976 41.537 23.844 41.848 L 23.844 41.848 L 23.844 41.848 Q 23.713 42.16 23.664 42.563 L 23.664 42.563 L 26.575 42.563 L 26.575 42.487 L 26.575 42.487 Q 26.559 42.197 26.481 41.913 L 26.481 41.913 L 26.481 41.913 Q 26.404 41.628 26.24 41.402 L 26.24 41.402 L 26.24 41.402 Q 26.076 41.177 25.818 41.037 L 25.818 41.037 L 25.818 41.037 Q 25.56 40.897 25.179 40.897 Z  M 33.348 46 L 32.306 46 L 32.306 46 Q 32.253 45.893 32.22 45.729 L 32.22 45.729 L 32.22 45.729 Q 32.188 45.565 32.167 45.388 L 32.167 45.388 L 32.167 45.388 Q 32.027 45.533 31.853 45.664 L 31.853 45.664 L 31.853 45.664 Q 31.678 45.796 31.471 45.895 L 31.471 45.895 L 31.471 45.895 Q 31.264 45.995 31.023 46.051 L 31.023 46.051 L 31.023 46.051 Q 30.781 46.107 30.512 46.107 L 30.512 46.107 L 30.512 46.107 Q 30.067 46.107 29.704 45.973 L 29.704 45.973 L 29.704 45.973 Q 29.342 45.839 29.086 45.608 L 29.086 45.608 L 29.086 45.608 Q 28.831 45.377 28.692 45.063 L 28.692 45.063 L 28.692 45.063 Q 28.552 44.749 28.552 44.389 L 28.552 44.389 L 28.552 44.389 Q 28.552 43.921 28.735 43.564 L 28.735 43.564 L 28.735 43.564 Q 28.917 43.207 29.258 42.965 L 29.258 42.965 L 29.258 42.965 Q 29.599 42.724 30.083 42.6 L 30.083 42.6 L 30.083 42.6 Q 30.566 42.477 31.162 42.477 L 31.162 42.477 L 32.151 42.477 L 32.151 42.02 L 32.151 42.02 Q 32.151 41.499 31.839 41.19 L 31.839 41.19 L 31.839 41.19 Q 31.528 40.881 30.921 40.881 L 30.921 40.881 L 30.921 40.881 Q 30.641 40.881 30.41 40.957 L 30.41 40.957 L 30.41 40.957 Q 30.179 41.032 30.016 41.158 L 30.016 41.158 L 30.016 41.158 Q 29.852 41.284 29.76 41.451 L 29.76 41.451 L 29.76 41.451 Q 29.669 41.617 29.669 41.8 L 29.669 41.8 L 28.67 41.8 L 28.67 41.8 Q 28.67 41.488 28.834 41.182 L 28.834 41.182 L 28.834 41.182 Q 28.998 40.876 29.299 40.632 L 29.299 40.632 L 29.299 40.632 Q 29.599 40.387 30.026 40.234 L 30.026 40.234 L 30.026 40.234 Q 30.453 40.081 30.98 40.081 L 30.98 40.081 L 30.98 40.081 Q 31.452 40.081 31.853 40.202 L 31.853 40.202 L 31.853 40.202 Q 32.253 40.323 32.537 40.567 L 32.537 40.567 L 32.537 40.567 Q 32.822 40.812 32.983 41.177 L 32.983 41.177 L 32.983 41.177 Q 33.144 41.542 33.144 42.031 L 33.144 42.031 L 33.144 44.732 L 33.144 44.732 Q 33.144 45.028 33.195 45.353 L 33.195 45.353 L 33.195 45.353 Q 33.246 45.678 33.348 45.914 L 33.348 45.914 L 33.348 46 L 33.348 46 Z  M 30.657 45.243 L 30.657 45.243 L 30.657 45.243 Q 30.926 45.243 31.162 45.167 L 31.162 45.167 L 31.162 45.167 Q 31.399 45.092 31.592 44.971 L 31.592 44.971 L 31.592 44.971 Q 31.785 44.851 31.928 44.695 L 31.928 44.695 L 31.928 44.695 Q 32.07 44.539 32.151 44.373 L 32.151 44.373 L 32.151 43.18 L 31.323 43.18 L 31.323 43.18 Q 30.469 43.18 30.008 43.446 L 30.008 43.446 L 30.008 43.446 Q 29.546 43.712 29.546 44.249 L 29.546 44.249 L 29.546 44.249 Q 29.546 44.458 29.615 44.641 L 29.615 44.641 L 29.615 44.641 Q 29.685 44.824 29.828 44.955 L 29.828 44.955 L 29.828 44.955 Q 29.97 45.087 30.177 45.165 L 30.177 45.165 L 30.177 45.165 Q 30.384 45.243 30.657 45.243 Z  M 37.511 40.156 L 37.511 41.08 L 37.511 41.08 Q 37.382 41.059 37.272 41.051 L 37.272 41.051 L 37.272 41.051 Q 37.162 41.042 37.022 41.042 L 37.022 41.042 L 37.022 41.042 Q 36.507 41.042 36.182 41.268 L 36.182 41.268 L 36.182 41.268 Q 35.857 41.494 35.696 41.875 L 35.696 41.875 L 35.696 46 L 34.702 46 L 34.702 40.188 L 35.669 40.188 L 35.685 40.86 L 35.685 40.86 Q 35.91 40.5 36.249 40.291 L 36.249 40.291 L 36.249 40.291 Q 36.587 40.081 37.071 40.081 L 37.071 40.081 L 37.071 40.081 Q 37.178 40.081 37.318 40.105 L 37.318 40.105 L 37.318 40.105 Q 37.457 40.129 37.511 40.156 L 37.511 40.156 L 37.511 40.156 Z  M 40.755 45.296 L 40.755 45.296 L 40.755 45.296 Q 41.018 45.296 41.26 45.21 L 41.26 45.21 L 41.26 45.21 Q 41.502 45.125 41.687 44.974 L 41.687 44.974 L 41.687 44.974 Q 41.872 44.824 41.988 44.617 L 41.988 44.617 L 41.988 44.617 Q 42.103 44.41 42.125 44.168 L 42.125 44.168 L 43.065 44.168 L 43.065 44.168 Q 43.043 44.555 42.853 44.907 L 42.853 44.907 L 42.853 44.907 Q 42.662 45.259 42.35 45.525 L 42.35 45.525 L 42.35 45.525 Q 42.039 45.791 41.628 45.949 L 41.628 45.949 L 41.628 45.949 Q 41.217 46.107 40.755 46.107 L 40.755 46.107 L 40.755 46.107 Q 40.1 46.107 39.614 45.874 L 39.614 45.874 L 39.614 45.874 Q 39.128 45.64 38.805 45.243 L 38.805 45.243 L 38.805 45.243 Q 38.483 44.845 38.325 44.319 L 38.325 44.319 L 38.325 44.319 Q 38.166 43.792 38.166 43.207 L 38.166 43.207 L 38.166 42.981 L 38.166 42.981 Q 38.166 42.396 38.325 41.87 L 38.325 41.87 L 38.325 41.87 Q 38.483 41.343 38.805 40.946 L 38.805 40.946 L 38.805 40.946 Q 39.128 40.548 39.611 40.315 L 39.611 40.315 L 39.611 40.315 Q 40.094 40.081 40.75 40.081 L 40.75 40.081 L 40.75 40.081 Q 41.26 40.081 41.676 40.242 L 41.676 40.242 L 41.676 40.242 Q 42.092 40.403 42.396 40.685 L 42.396 40.685 L 42.396 40.685 Q 42.699 40.967 42.871 41.354 L 42.871 41.354 L 42.871 41.354 Q 43.043 41.741 43.065 42.187 L 43.065 42.187 L 42.125 42.187 L 42.125 42.187 Q 42.103 41.918 41.998 41.684 L 41.998 41.684 L 41.998 41.684 Q 41.894 41.451 41.717 41.276 L 41.717 41.276 L 41.717 41.276 Q 41.539 41.102 41.295 41 L 41.295 41 L 41.295 41 Q 41.051 40.897 40.75 40.897 L 40.75 40.897 L 40.75 40.897 Q 40.288 40.897 39.984 41.08 L 39.984 41.08 L 39.984 41.08 Q 39.681 41.263 39.496 41.561 L 39.496 41.561 L 39.496 41.561 Q 39.31 41.859 39.235 42.232 L 39.235 42.232 L 39.235 42.232 Q 39.16 42.605 39.16 42.981 L 39.16 42.981 L 39.16 43.207 L 39.16 43.207 Q 39.16 43.594 39.235 43.967 L 39.235 43.967 L 39.235 43.967 Q 39.31 44.34 39.493 44.636 L 39.493 44.636 L 39.493 44.636 Q 39.676 44.931 39.982 45.114 L 39.982 45.114 L 39.982 45.114 Q 40.288 45.296 40.755 45.296 Z  M 45.176 37.75 L 45.176 40.892 L 45.176 40.892 Q 45.487 40.511 45.922 40.296 L 45.922 40.296 L 45.922 40.296 Q 46.357 40.081 46.894 40.081 L 46.894 40.081 L 46.894 40.081 Q 47.319 40.081 47.662 40.197 L 47.662 40.197 L 47.662 40.197 Q 48.006 40.312 48.248 40.567 L 48.248 40.567 L 48.248 40.567 Q 48.489 40.822 48.621 41.222 L 48.621 41.222 L 48.621 41.222 Q 48.753 41.623 48.753 42.192 L 48.753 42.192 L 48.753 46 L 47.759 46 L 47.759 42.181 L 47.759 42.181 Q 47.759 41.843 47.684 41.604 L 47.684 41.604 L 47.684 41.604 Q 47.609 41.365 47.461 41.214 L 47.461 41.214 L 47.461 41.214 Q 47.313 41.064 47.096 40.994 L 47.096 40.994 L 47.096 40.994 Q 46.878 40.924 46.593 40.924 L 46.593 40.924 L 46.593 40.924 Q 46.11 40.924 45.745 41.182 L 45.745 41.182 L 45.745 41.182 Q 45.38 41.44 45.176 41.859 L 45.176 41.859 L 45.176 46 L 44.182 46 L 44.182 37.75 L 45.176 37.75 L 45.176 37.75 Z " fill-rule="evenodd" fill="rgb(0,0,0)"/><g id="baseline-search-24px"><path d=" M 36.5 24 L 35.71 24 L 35.43 23.73 C 37.709 21.075 37.481 17.093 34.915 14.715 C 32.348 12.337 28.361 12.413 25.887 14.887 C 23.413 17.361 23.337 21.348 25.715 23.915 C 28.093 26.481 32.075 26.709 34.73 24.43 L 35 24.71 L 35 25.5 L 40 30.49 L 41.49 29 L 36.5 24 Z  M 30.5 24 C 28.015 24 26 21.985 26 19.5 C 26 17.015 28.015 15 30.5 15 C 32.985 15 35 17.015 35 19.5 C 35.002 20.694 34.528 21.839 33.684 22.684 C 32.839 23.528 31.694 24.002 30.5 24 L 30.5 24 Z " fill="rgb(0,0,0)"/><path d=" M 21 10 L 45 10 L 45 34 L 21 34 L 21 10 Z " fill="none"/></g></g></g></g></svg>