<svg xmlns="http://www.w3.org/2000/svg" xmlns:xlink="http://www.w3.org/1999/xlink" width="65" height="56" viewBox="0 0 65 56">
  <defs>
    <clipPath id="clip-path">
      <rect id="Rectangle_31" data-name="Rectangle 31" width="65" height="56"/>
    </clipPath>
    <clipPath id="clip-path-2">
      <rect id="Rectangle_30" data-name="Rectangle 30" width="65" height="56" fill="#fff"/>
    </clipPath>
  </defs>
  <g id="website" clip-path="url(#clip-path)">
    <rect width="65" height="56" fill="#fff"/>
    <g id="Home" clip-path="url(#clip-path)">
      <g id="Group_22" data-name="Group 22" clip-path="url(#clip-path-2)">
        <g id="Group_21" data-name="Group 21">
          <rect id="Rectangle_29" data-name="Rectangle 29" width="65" height="56" fill="#fff"/>
          <path id="Path_444" data-name="Path 444" d="M11.063,4.6,8.689,13H7.535L5.807,6.859A3.844,3.844,0,0,1,5.672,6H5.648a4.34,4.34,0,0,1-.152.844L3.756,13H2.613L.152,4.6H1.236l1.787,6.445a4.23,4.23,0,0,1,.141.844h.029a4.981,4.981,0,0,1,.182-.844L5.232,4.6h.943L7.957,11.09a4.749,4.749,0,0,1,.141.785h.023a4.707,4.707,0,0,1,.158-.809L10,4.6Zm5.473,5.643H12.3a2.244,2.244,0,0,0,.539,1.547,1.858,1.858,0,0,0,1.418.545,2.948,2.948,0,0,0,1.863-.668v.9a3.482,3.482,0,0,1-2.092.574,2.536,2.536,0,0,1-2-.817,3.346,3.346,0,0,1-.727-2.3A3.281,3.281,0,0,1,12.1,7.741a2.546,2.546,0,0,1,1.972-.882,2.256,2.256,0,0,1,1.822.762,3.176,3.176,0,0,1,.645,2.115Zm-.984-.814a1.955,1.955,0,0,0-.4-1.295,1.368,1.368,0,0,0-1.1-.463,1.552,1.552,0,0,0-1.154.486,2.207,2.207,0,0,0-.586,1.271Zm3.422,2.707h-.023V13h-.961V4.117h.961V8.055h.023a2.272,2.272,0,0,1,2.074-1.2,2.2,2.2,0,0,1,1.808.806,3.327,3.327,0,0,1,.653,2.159,3.719,3.719,0,0,1-.732,2.411,2.439,2.439,0,0,1-2,.905A1.974,1.974,0,0,1,18.973,12.133Zm-.023-2.42v.838a1.784,1.784,0,0,0,.483,1.263,1.725,1.725,0,0,0,2.6-.149,3.064,3.064,0,0,0,.5-1.857,2.419,2.419,0,0,0-.463-1.57,1.532,1.532,0,0,0-1.254-.568,1.7,1.7,0,0,0-1.348.583A2.141,2.141,0,0,0,18.949,9.713Zm5.73,3.07V11.752a2.844,2.844,0,0,0,1.729.58q1.266,0,1.266-.844a.732.732,0,0,0-.108-.407,1.08,1.08,0,0,0-.293-.3,2.255,2.255,0,0,0-.434-.231q-.249-.1-.536-.214a6.9,6.9,0,0,1-.7-.319,2.115,2.115,0,0,1-.5-.363,1.352,1.352,0,0,1-.3-.46,1.627,1.627,0,0,1-.1-.6,1.434,1.434,0,0,1,.193-.747A1.715,1.715,0,0,1,25.4,7.3a2.4,2.4,0,0,1,.735-.331,3.262,3.262,0,0,1,.853-.111,3.442,3.442,0,0,1,1.395.27V8.1a2.718,2.718,0,0,0-1.523-.434,1.781,1.781,0,0,0-.486.062A1.191,1.191,0,0,0,26,7.9a.8.8,0,0,0-.24.267.7.7,0,0,0-.085.343.822.822,0,0,0,.085.393.864.864,0,0,0,.249.281,1.9,1.9,0,0,0,.4.223q.234.1.533.217a7.421,7.421,0,0,1,.715.313,2.452,2.452,0,0,1,.539.363,1.42,1.42,0,0,1,.343.466,1.5,1.5,0,0,1,.12.627,1.478,1.478,0,0,1-.2.773,1.682,1.682,0,0,1-.524.545,2.4,2.4,0,0,1-.756.322,3.732,3.732,0,0,1-.9.105A3.4,3.4,0,0,1,24.68,12.783Zm5.947-7.307a.609.609,0,0,1-.439-.176.593.593,0,0,1-.182-.445.615.615,0,0,1,.621-.627.621.621,0,0,1,.448.179.626.626,0,0,1,0,.888A.615.615,0,0,1,30.627,5.477ZM31.1,13h-.961V7H31.1Zm4.729-.059a1.853,1.853,0,0,1-.9.188q-1.576,0-1.576-1.758V7.82H32.32V7h1.031V5.535l.961-.311V7h1.512v.82H34.313V11.2a1.4,1.4,0,0,0,.205.861.818.818,0,0,0,.68.258,1.01,1.01,0,0,0,.627-.2Zm6.105-2.7H37.693a2.244,2.244,0,0,0,.539,1.547,1.858,1.858,0,0,0,1.418.545,2.948,2.948,0,0,0,1.863-.668v.9a3.482,3.482,0,0,1-2.092.574,2.536,2.536,0,0,1-2-.817,3.346,3.346,0,0,1-.727-2.3,3.281,3.281,0,0,1,.794-2.282,2.546,2.546,0,0,1,1.972-.882,2.256,2.256,0,0,1,1.822.762,3.176,3.176,0,0,1,.645,2.115Zm-.984-.814a1.955,1.955,0,0,0-.4-1.295,1.368,1.368,0,0,0-1.1-.463,1.552,1.552,0,0,0-1.154.486,2.207,2.207,0,0,0-.586,1.271Z" transform="translate(11 35)"/>
          <g id="public-24px" transform="translate(20 10)">
            <path id="Path_442" data-name="Path 442" d="M0,0H24V24H0Z" fill="none"/>
            <path id="Path_443" data-name="Path 443" d="M12,2A10,10,0,1,0,22,12,10,10,0,0,0,12,2ZM4,12a8.028,8.028,0,0,1,.21-1.78L8.99,15v1a2.006,2.006,0,0,0,2,2v1.93A8.012,8.012,0,0,1,4,12Zm13.89,5.4a1.993,1.993,0,0,0-1.9-1.4h-1V13a1,1,0,0,0-1-1h-6V10h2a1,1,0,0,0,1-1V7h2a2.006,2.006,0,0,0,2-2V4.59a7.978,7.978,0,0,1,2.9,12.81Z"/>
          </g>
        </g>
      </g>
    </g>
  </g>
</svg>
